<?xml version="1.0" encoding="UTF-8"?>
<svg xmlns="http://www.w3.org/2000/svg" viewBox="0 0 1280 320" width="1280" height="320">
  <defs>
    <!-- Sky gradient -->
    <linearGradient id="skyGradient" x1="0%" y1="0%" x2="0%" y2="100%">
      <stop offset="0%" style="stop-color:#1a0a00"/>
      <stop offset="40%" style="stop-color:#2d1408"/>
      <stop offset="100%" style="stop-color:#4a1a0a"/>
    </linearGradient>

    <!-- Lava gradient -->
    <linearGradient id="lavaGradient" x1="0%" y1="0%" x2="100%" y2="0%">
      <stop offset="0%" style="stop-color:#cc3300"/>
      <stop offset="50%" style="stop-color:#ff4500"/>
      <stop offset="100%" style="stop-color:#cc3300"/>
    </linearGradient>

    <!-- Glow filter -->
    <filter id="lavaGlow" x="-50%" y="-50%" width="200%" height="200%">
      <feGaussianBlur stdDeviation="2" result="coloredBlur"/>
      <feMerge>
        <feMergeNode in="coloredBlur"/>
        <feMergeNode in="SourceGraphic"/>
      </feMerge>
    </filter>

    <!-- Dragon Egg Symbol -->
    <symbol id="dragon-egg" viewBox="0 0 24 28">
      <g class="dragon-egg">
        <!-- Egg outline and fill -->
        <rect x="8" y="0" width="2" height="2" fill="#8b4513"/>
        <rect x="10" y="0" width="2" height="2" fill="#8b4513"/>
        <rect x="12" y="0" width="2" height="2" fill="#8b4513"/>
        <rect x="14" y="0" width="2" height="2" fill="#8b4513"/>
        <rect x="4" y="2" width="2" height="2" fill="#8b4513"/>
        <rect x="6" y="2" width="2" height="2" fill="#8b4513"/>
        <rect x="16" y="2" width="2" height="2" fill="#8b4513"/>
        <rect x="18" y="2" width="2" height="2" fill="#8b4513"/>
        <rect x="2" y="4" width="2" height="2" fill="#8b4513"/>
        <rect x="20" y="4" width="2" height="2" fill="#8b4513"/>
        <rect x="2" y="6" width="2" height="2" fill="#8b4513"/>
        <rect x="20" y="6" width="2" height="2" fill="#8b4513"/>
        <rect x="0" y="8" width="2" height="2" fill="#8b4513"/>
        <rect x="22" y="8" width="2" height="2" fill="#8b4513"/>
        <rect x="0" y="10" width="2" height="2" fill="#8b4513"/>
        <rect x="22" y="10" width="2" height="2" fill="#8b4513"/>
        <rect x="0" y="12" width="2" height="2" fill="#8b4513"/>
        <rect x="22" y="12" width="2" height="2" fill="#8b4513"/>
        <rect x="0" y="14" width="2" height="2" fill="#8b4513"/>
        <rect x="22" y="14" width="2" height="2" fill="#8b4513"/>
        <rect x="0" y="16" width="2" height="2" fill="#8b4513"/>
        <rect x="22" y="16" width="2" height="2" fill="#8b4513"/>
        <rect x="0" y="18" width="2" height="2" fill="#8b4513"/>
        <rect x="22" y="18" width="2" height="2" fill="#8b4513"/>
        <rect x="2" y="20" width="2" height="2" fill="#8b4513"/>
        <rect x="20" y="20" width="2" height="2" fill="#8b4513"/>
        <rect x="2" y="22" width="2" height="2" fill="#8b4513"/>
        <rect x="20" y="22" width="2" height="2" fill="#8b4513"/>
        <rect x="4" y="24" width="2" height="2" fill="#8b4513"/>
        <rect x="18" y="24" width="2" height="2" fill="#8b4513"/>
        <rect x="6" y="26" width="2" height="2" fill="#8b4513"/>
        <rect x="8" y="26" width="2" height="2" fill="#8b4513"/>
        <rect x="14" y="26" width="2" height="2" fill="#8b4513"/>
        <rect x="16" y="26" width="2" height="2" fill="#8b4513"/>

        <!-- Light brown fill -->
        <rect x="8" y="2" width="2" height="2" fill="#a0522d"/>
        <rect x="10" y="2" width="2" height="2" fill="#a0522d"/>
        <rect x="12" y="2" width="2" height="2" fill="#a0522d"/>
        <rect x="14" y="2" width="2" height="2" fill="#a0522d"/>
        <rect x="4" y="4" width="2" height="2" fill="#a0522d"/>
        <rect x="6" y="4" width="2" height="2" fill="#a0522d"/>
        <rect x="8" y="4" width="2" height="2" fill="#a0522d"/>
        <rect x="10" y="4" width="2" height="2" fill="#a0522d"/>
        <rect x="12" y="4" width="2" height="2" fill="#a0522d"/>
        <rect x="14" y="4" width="2" height="2" fill="#a0522d"/>
        <rect x="16" y="4" width="2" height="2" fill="#a0522d"/>
        <rect x="18" y="4" width="2" height="2" fill="#a0522d"/>

        <!-- Darker fill for body -->
        <rect x="2" y="8" width="20" height="2" fill="#8b4513"/>
        <rect x="2" y="10" width="20" height="2" fill="#8b4513"/>
        <rect x="2" y="12" width="20" height="2" fill="#8b4513"/>
        <rect x="2" y="14" width="20" height="2" fill="#8b4513"/>
        <rect x="2" y="16" width="20" height="2" fill="#8b4513"/>
        <rect x="2" y="18" width="20" height="2" fill="#8b4513"/>
        <rect x="4" y="20" width="16" height="2" fill="#8b4513"/>
        <rect x="4" y="22" width="16" height="2" fill="#8b4513"/>
        <rect x="6" y="24" width="12" height="2" fill="#8b4513"/>
        <rect x="10" y="26" width="4" height="2" fill="#8b4513"/>

        <!-- Golden speckles -->
        <rect x="6" y="4" width="2" height="2" fill="#daa520"/>
        <rect x="14" y="6" width="2" height="2" fill="#daa520"/>
        <rect x="10" y="8" width="2" height="2" fill="#d2691e"/>
        <rect x="8" y="16" width="2" height="2" fill="#daa520"/>
        <rect x="12" y="20" width="2" height="2" fill="#daa520"/>
      </g>
    </symbol>

    <!-- Hatching Dragon Symbol -->
    <symbol id="dragon-hatching" viewBox="0 0 32 36">
      <g class="hatching-dragon">
        <!-- Dragon head (simplified for small display) -->
        <rect x="12" y="0" width="2" height="2" fill="#c41e3a"/>
        <rect x="14" y="0" width="2" height="2" fill="#c41e3a"/>
        <rect x="16" y="0" width="2" height="2" fill="#c41e3a"/>
        <rect x="18" y="0" width="2" height="2" fill="#c41e3a"/>
        <rect x="10" y="2" width="2" height="2" fill="#c41e3a"/>
        <rect x="12" y="2" width="2" height="2" fill="#c41e3a"/>
        <rect x="14" y="2" width="2" height="2" fill="#c41e3a"/>
        <rect x="16" y="2" width="2" height="2" fill="#c41e3a"/>
        <rect x="18" y="2" width="2" height="2" fill="#c41e3a"/>
        <rect x="20" y="2" width="2" height="2" fill="#c41e3a"/>

        <!-- Eyes -->
        <rect x="10" y="4" width="2" height="2" fill="#ffd700"/>
        <rect x="18" y="4" width="2" height="2" fill="#ffd700"/>

        <!-- Shell pieces -->
        <rect x="6" y="2" width="2" height="2" fill="#f5f5dc"/>
        <rect x="24" y="2" width="2" height="2" fill="#f5f5dc"/>

        <!-- Cracked egg bottom -->
        <rect x="4" y="10" width="24" height="2" fill="#8b4513"/>
        <rect x="2" y="12" width="28" height="2" fill="#8b4513"/>
        <rect x="2" y="14" width="28" height="2" fill="#8b4513"/>
        <rect x="2" y="16" width="28" height="2" fill="#8b4513"/>
        <rect x="4" y="18" width="24" height="2" fill="#8b4513"/>
        <rect x="6" y="20" width="20" height="2" fill="#8b4513"/>
        <rect x="8" y="22" width="16" height="2" fill="#8b4513"/>
        <rect x="10" y="24" width="12" height="2" fill="#8b4513"/>
        <rect x="12" y="26" width="8" height="2" fill="#8b4513"/>
        <rect x="14" y="28" width="4" height="2" fill="#8b4513"/>

        <!-- Crack lines -->
        <rect x="14" y="10" width="2" height="2" fill="#2d1b0e"/>
        <rect x="10" y="14" width="2" height="2" fill="#2d1b0e"/>
        <rect x="20" y="14" width="2" height="2" fill="#2d1b0e"/>
      </g>
    </symbol>

    <!-- Full Dragon Symbol -->
    <symbol id="dragon-full" viewBox="0 0 40 40">
      <g class="full-dragon">
        <!-- Wings (simplified) -->
        <rect x="4" y="10" width="2" height="2" fill="#ff4444"/>
        <rect x="6" y="8" width="2" height="2" fill="#ff4444"/>
        <rect x="8" y="6" width="2" height="2" fill="#ff4444"/>
        <rect x="32" y="10" width="2" height="2" fill="#ff4444"/>
        <rect x="30" y="8" width="2" height="2" fill="#ff4444"/>
        <rect x="28" y="6" width="2" height="2" fill="#ff4444"/>

        <!-- Horns -->
        <rect x="14" y="0" width="2" height="2" fill="#8b1428"/>
        <rect x="24" y="0" width="2" height="2" fill="#8b1428"/>
        <rect x="12" y="2" width="2" height="2" fill="#8b1428"/>
        <rect x="14" y="2" width="2" height="2" fill="#8b1428"/>
        <rect x="24" y="2" width="2" height="2" fill="#8b1428"/>
        <rect x="26" y="2" width="2" height="2" fill="#8b1428"/>

        <!-- Head -->
        <rect x="16" y="2" width="2" height="2" fill="#c41e3a"/>
        <rect x="18" y="2" width="2" height="2" fill="#c41e3a"/>
        <rect x="20" y="2" width="2" height="2" fill="#c41e3a"/>
        <rect x="22" y="2" width="2" height="2" fill="#c41e3a"/>
        <rect x="14" y="4" width="2" height="2" fill="#c41e3a"/>
        <rect x="16" y="4" width="2" height="2" fill="#c41e3a"/>
        <rect x="18" y="4" width="2" height="2" fill="#c41e3a"/>
        <rect x="20" y="4" width="2" height="2" fill="#c41e3a"/>
        <rect x="22" y="4" width="2" height="2" fill="#c41e3a"/>
        <rect x="24" y="4" width="2" height="2" fill="#c41e3a"/>

        <!-- Eyes -->
        <rect x="14" y="6" width="2" height="2" fill="#ffd700"/>
        <rect x="22" y="6" width="2" height="2" fill="#ffd700"/>

        <!-- Snout -->
        <rect x="16" y="10" width="2" height="2" fill="#f5deb3"/>
        <rect x="18" y="10" width="2" height="2" fill="#f5deb3"/>
        <rect x="20" y="10" width="2" height="2" fill="#f5deb3"/>
        <rect x="22" y="10" width="2" height="2" fill="#f5deb3"/>
        <rect x="18" y="12" width="2" height="2" fill="#ff6b35"/>
        <rect x="20" y="12" width="2" height="2" fill="#ff6b35"/>

        <!-- Body -->
        <rect x="12" y="16" width="16" height="2" fill="#c41e3a"/>
        <rect x="10" y="18" width="20" height="2" fill="#c41e3a"/>
        <rect x="10" y="20" width="20" height="2" fill="#c41e3a"/>
        <rect x="10" y="22" width="20" height="2" fill="#c41e3a"/>
        <rect x="12" y="24" width="16" height="2" fill="#c41e3a"/>

        <!-- Belly -->
        <rect x="16" y="18" width="8" height="2" fill="#f5deb3"/>
        <rect x="16" y="20" width="8" height="2" fill="#f5deb3"/>
        <rect x="16" y="22" width="8" height="2" fill="#f5deb3"/>

        <!-- Legs -->
        <rect x="8" y="26" width="4" height="2" fill="#c41e3a"/>
        <rect x="28" y="26" width="4" height="2" fill="#c41e3a"/>
        <rect x="8" y="28" width="4" height="2" fill="#c41e3a"/>
        <rect x="28" y="28" width="4" height="2" fill="#c41e3a"/>

        <!-- Tail -->
        <rect x="30" y="20" width="2" height="2" fill="#c41e3a"/>
        <rect x="32" y="18" width="2" height="2" fill="#c41e3a"/>
        <rect x="34" y="16" width="2" height="2" fill="#c41e3a"/>
        <rect x="36" y="14" width="2" height="2" fill="#c41e3a"/>
        <rect x="38" y="10" width="2" height="2" fill="#ff6b35"/>
        <rect x="38" y="8" width="2" height="2" fill="#ff6b35"/>
        <rect x="38" y="6" width="2" height="2" fill="#ff6b35"/>

        <!-- Fire breath -->
        <rect x="12" y="12" width="2" height="2" fill="#ff6b35"/>
        <rect x="10" y="10" width="2" height="2" fill="#ff6b35"/>
        <rect x="8" y="10" width="2" height="2" fill="#ff8c00"/>
        <rect x="6" y="8" width="2" height="2" fill="#ff8c00"/>
        <rect x="4" y="6" width="2" height="2" fill="#ffcc00"/>
        <rect x="6" y="6" width="2" height="2" fill="#ffcc00"/>
      </g>
    </symbol>
  </defs>

  <!-- Background -->
  <rect x="0" y="0" width="1280" height="320" fill="url(#skyGradient)"/>

  <!-- Ground -->
  <rect x="0" y="280" width="1280" height="40" fill="#2d1b0e"/>

  <!-- Lava river at bottom -->
  <rect x="0" y="300" width="1280" height="20" fill="url(#lavaGradient)" filter="url(#lavaGlow)"/>

  <!-- Title -->
  <text x="640" y="30" text-anchor="middle" font-family="monospace" font-size="20" font-weight="bold" fill="#ffd700">
    DRAGON CONTRIBUTION LAIR
  </text>

  <!-- Contribution Grid -->
  <g transform="translate(40, 50)">
    <!-- Create a 52-week x 7-day grid -->
    <!-- Empty cells (gray) -->
    <g id="grid">
      <!-- Week 1-10 (mostly empty with some eggs) -->
      <rect x="0" y="0" width="11" height="11" rx="2" fill="#2d1b0e" opacity="0.3"/>
      <rect x="15" y="0" width="11" height="11" rx="2" fill="#2d1b0e" opacity="0.3"/>
      <rect x="30" y="0" width="11" height="11" rx="2" fill="#2d1b0e" opacity="0.3"/>
      <use href="#dragon-egg" x="48" y="0" width="11" height="11"/>
      <rect x="60" y="0" width="11" height="11" rx="2" fill="#2d1b0e" opacity="0.3"/>
      <rect x="75" y="0" width="11" height="11" rx="2" fill="#2d1b0e" opacity="0.3"/>
      <use href="#dragon-egg" x="90" y="0" width="11" height="11"/>
      <rect x="105" y="0" width="11" height="11" rx="2" fill="#2d1b0e" opacity="0.3"/>
      <use href="#dragon-egg" x="120" y="0" width="11" height="11"/>
      <rect x="135" y="0" width="11" height="11" rx="2" fill="#2d1b0e" opacity="0.3"/>

      <!-- Row 2 -->
      <rect x="0" y="15" width="11" height="11" rx="2" fill="#2d1b0e" opacity="0.3"/>
      <use href="#dragon-egg" x="15" y="15" width="11" height="11"/>
      <rect x="30" y="15" width="11" height="11" rx="2" fill="#2d1b0e" opacity="0.3"/>
      <rect x="45" y="15" width="11" height="11" rx="2" fill="#2d1b0e" opacity="0.3"/>
      <use href="#dragon-egg" x="60" y="15" width="11" height="11"/>
      <use href="#dragon-egg" x="75" y="15" width="11" height="11"/>
      <rect x="90" y="15" width="11" height="11" rx="2" fill="#2d1b0e" opacity="0.3"/>
      <use href="#dragon-egg" x="105" y="15" width="11" height="11"/>
      <rect x="120" y="15" width="11" height="11" rx="2" fill="#2d1b0e" opacity="0.3"/>
      <use href="#dragon-egg" x="135" y="15" width="11" height="11"/>

      <!-- Row 3 -->
      <rect x="0" y="30" width="11" height="11" rx="2" fill="#2d1b0e" opacity="0.3"/>
      <rect x="15" y="30" width="11" height="11" rx="2" fill="#2d1b0e" opacity="0.3"/>
      <use href="#dragon-egg" x="30" y="30" width="11" height="11"/>
      <use href="#dragon-hatching" x="45" y="30" width="11" height="11"/>
      <use href="#dragon-egg" x="60" y="30" width="11" height="11"/>
      <rect x="75" y="30" width="11" height="11" rx="2" fill="#2d1b0e" opacity="0.3"/>
      <use href="#dragon-egg" x="90" y="30" width="11" height="11"/>
      <use href="#dragon-hatching" x="105" y="30" width="11" height="11"/>
      <use href="#dragon-egg" x="120" y="30" width="11" height="11"/>
      <rect x="135" y="30" width="11" height="11" rx="2" fill="#2d1b0e" opacity="0.3"/>

      <!-- Row 4 -->
      <use href="#dragon-egg" x="0" y="45" width="11" height="11"/>
      <rect x="15" y="45" width="11" height="11" rx="2" fill="#2d1b0e" opacity="0.3"/>
      <use href="#dragon-hatching" x="30" y="45" width="11" height="11"/>
      <use href="#dragon-egg" x="45" y="45" width="11" height="11"/>
      <use href="#dragon-hatching" x="60" y="45" width="11" height="11"/>
      <use href="#dragon-egg" x="75" y="45" width="11" height="11"/>
      <use href="#dragon-hatching" x="90" y="45" width="11" height="11"/>
      <use href="#dragon-full" x="105" y="45" width="11" height="11"/>
      <use href="#dragon-egg" x="120" y="45" width="11" height="11"/>
      <use href="#dragon-hatching" x="135" y="45" width="11" height="11"/>

      <!-- Row 5 -->
      <rect x="0" y="60" width="11" height="11" rx="2" fill="#2d1b0e" opacity="0.3"/>
      <use href="#dragon-egg" x="15" y="60" width="11" height="11"/>
      <use href="#dragon-egg" x="30" y="60" width="11" height="11"/>
      <use href="#dragon-hatching" x="45" y="60" width="11" height="11"/>
      <use href="#dragon-full" x="60" y="60" width="11" height="11"/>
      <use href="#dragon-hatching" x="75" y="60" width="11" height="11"/>
      <use href="#dragon-full" x="90" y="60" width="11" height="11"/>
      <use href="#dragon-hatching" x="105" y="60" width="11" height="11"/>
      <use href="#dragon-full" x="120" y="60" width="11" height="11"/>
      <use href="#dragon-egg" x="135" y="60" width="11" height="11"/>

      <!-- Row 6 -->
      <use href="#dragon-egg" x="0" y="75" width="11" height="11"/>
      <use href="#dragon-hatching" x="15" y="75" width="11" height="11"/>
      <rect x="30" y="75" width="11" height="11" rx="2" fill="#2d1b0e" opacity="0.3"/>
      <use href="#dragon-full" x="45" y="75" width="11" height="11"/>
      <use href="#dragon-hatching" x="60" y="75" width="11" height="11"/>
      <use href="#dragon-full" x="75" y="75" width="11" height="11"/>
      <use href="#dragon-full" x="90" y="75" width="11" height="11"/>
      <use href="#dragon-hatching" x="105" y="75" width="11" height="11"/>
      <use href="#dragon-full" x="120" y="75" width="11" height="11"/>
      <use href="#dragon-hatching" x="135" y="75" width="11" height="11"/>

      <!-- Row 7 -->
      <rect x="0" y="90" width="11" height="11" rx="2" fill="#2d1b0e" opacity="0.3"/>
      <use href="#dragon-egg" x="15" y="90" width="11" height="11"/>
      <use href="#dragon-egg" x="30" y="90" width="11" height="11"/>
      <use href="#dragon-hatching" x="45" y="90" width="11" height="11"/>
      <use href="#dragon-egg" x="60" y="90" width="11" height="11"/>
      <use href="#dragon-hatching" x="75" y="90" width="11" height="11"/>
      <use href="#dragon-full" x="90" y="90" width="11" height="11"/>
      <use href="#dragon-egg" x="105" y="90" width="11" height="11"/>
      <use href="#dragon-hatching" x="120" y="90" width="11" height="11"/>
      <rect x="135" y="90" width="11" height="11" rx="2" fill="#2d1b0e" opacity="0.3"/>

      <!-- Continue pattern for more weeks (showing progression) -->
      <!-- Week 11-20 -->
      <use href="#dragon-egg" x="150" y="0" width="11" height="11"/>
      <use href="#dragon-hatching" x="165" y="0" width="11" height="11"/>
      <use href="#dragon-egg" x="180" y="0" width="11" height="11"/>
      <use href="#dragon-full" x="195" y="0" width="11" height="11"/>
      <use href="#dragon-hatching" x="210" y="0" width="11" height="11"/>
      <use href="#dragon-egg" x="225" y="0" width="11" height="11"/>
      <use href="#dragon-full" x="240" y="0" width="11" height="11"/>
      <use href="#dragon-hatching" x="255" y="0" width="11" height="11"/>
      <use href="#dragon-full" x="270" y="0" width="11" height="11"/>
      <use href="#dragon-egg" x="285" y="0" width="11" height="11"/>

      <use href="#dragon-hatching" x="150" y="15" width="11" height="11"/>
      <use href="#dragon-full" x="165" y="15" width="11" height="11"/>
      <use href="#dragon-hatching" x="180" y="15" width="11" height="11"/>
      <use href="#dragon-full" x="195" y="15" width="11" height="11"/>
      <use href="#dragon-full" x="210" y="15" width="11" height="11"/>
      <use href="#dragon-hatching" x="225" y="15" width="11" height="11"/>
      <use href="#dragon-full" x="240" y="15" width="11" height="11"/>
      <use href="#dragon-full" x="255" y="15" width="11" height="11"/>
      <use href="#dragon-hatching" x="270" y="15" width="11" height="11"/>
      <use href="#dragon-full" x="285" y="15" width="11" height="11"/>

      <use href="#dragon-egg" x="150" y="30" width="11" height="11"/>
      <use href="#dragon-hatching" x="165" y="30" width="11" height="11"/>
      <use href="#dragon-full" x="180" y="30" width="11" height="11"/>
      <use href="#dragon-hatching" x="195" y="30" width="11" height="11"/>
      <use href="#dragon-full" x="210" y="30" width="11" height="11"/>
      <use href="#dragon-full" x="225" y="30" width="11" height="11"/>
      <use href="#dragon-full" x="240" y="30" width="11" height="11"/>
      <use href="#dragon-hatching" x="255" y="30" width="11" height="11"/>
      <use href="#dragon-full" x="270" y="30" width="11" height="11"/>
      <use href="#dragon-hatching" x="285" y="30" width="11" height="11"/>

      <use href="#dragon-hatching" x="150" y="45" width="11" height="11"/>
      <use href="#dragon-full" x="165" y="45" width="11" height="11"/>
      <use href="#dragon-full" x="180" y="45" width="11" height="11"/>
      <use href="#dragon-full" x="195" y="45" width="11" height="11"/>
      <use href="#dragon-hatching" x="210" y="45" width="11" height="11"/>
      <use href="#dragon-full" x="225" y="45" width="11" height="11"/>
      <use href="#dragon-full" x="240" y="45" width="11" height="11"/>
      <use href="#dragon-full" x="255" y="45" width="11" height="11"/>
      <use href="#dragon-full" x="270" y="45" width="11" height="11"/>
      <use href="#dragon-full" x="285" y="45" width="11" height="11"/>

      <use href="#dragon-egg" x="150" y="60" width="11" height="11"/>
      <use href="#dragon-hatching" x="165" y="60" width="11" height="11"/>
      <use href="#dragon-full" x="180" y="60" width="11" height="11"/>
      <use href="#dragon-full" x="195" y="60" width="11" height="11"/>
      <use href="#dragon-full" x="210" y="60" width="11" height="11"/>
      <use href="#dragon-hatching" x="225" y="60" width="11" height="11"/>
      <use href="#dragon-full" x="240" y="60" width="11" height="11"/>
      <use href="#dragon-full" x="255" y="60" width="11" height="11"/>
      <use href="#dragon-full" x="270" y="60" width="11" height="11"/>
      <use href="#dragon-hatching" x="285" y="60" width="11" height="11"/>

      <use href="#dragon-hatching" x="150" y="75" width="11" height="11"/>
      <use href="#dragon-full" x="165" y="75" width="11" height="11"/>
      <use href="#dragon-full" x="180" y="75" width="11" height="11"/>
      <use href="#dragon-full" x="195" y="75" width="11" height="11"/>
      <use href="#dragon-full" x="210" y="75" width="11" height="11"/>
      <use href="#dragon-full" x="225" y="75" width="11" height="11"/>
      <use href="#dragon-full" x="240" y="75" width="11" height="11"/>
      <use href="#dragon-full" x="255" y="75" width="11" height="11"/>
      <use href="#dragon-full" x="270" y="75" width="11" height="11"/>
      <use href="#dragon-full" x="285" y="75" width="11" height="11"/>

      <use href="#dragon-egg" x="150" y="90" width="11" height="11"/>
      <use href="#dragon-egg" x="165" y="90" width="11" height="11"/>
      <use href="#dragon-hatching" x="180" y="90" width="11" height="11"/>
      <use href="#dragon-full" x="195" y="90" width="11" height="11"/>
      <use href="#dragon-hatching" x="210" y="90" width="11" height="11"/>
      <use href="#dragon-full" x="225" y="90" width="11" height="11"/>
      <use href="#dragon-full" x="240" y="90" width="11" height="11"/>
      <use href="#dragon-hatching" x="255" y="90" width="11" height="11"/>
      <use href="#dragon-full" x="270" y="90" width="11" height="11"/>
      <use href="#dragon-egg" x="285" y="90" width="11" height="11"/>

      <!-- Continue with more weeks (similar pattern) -->
      <!-- Week 21-52 (repeating variations) -->
      <use href="#dragon-full" x="300" y="0" width="11" height="11"/>
      <use href="#dragon-hatching" x="315" y="0" width="11" height="11"/>
      <use href="#dragon-full" x="330" y="0" width="11" height="11"/>
      <use href="#dragon-full" x="345" y="0" width="11" height="11"/>
      <use href="#dragon-egg" x="360" y="0" width="11" height="11"/>
      <use href="#dragon-hatching" x="375" y="0" width="11" height="11"/>
      <use href="#dragon-full" x="390" y="0" width="11" height="11"/>
      <use href="#dragon-full" x="405" y="0" width="11" height="11"/>
      <use href="#dragon-full" x="420" y="0" width="11" height="11"/>
      <rect x="435" y="0" width="11" height="11" rx="2" fill="#2d1b0e" opacity="0.3"/>
      <use href="#dragon-egg" x="450" y="0" width="11" height="11"/>
      <use href="#dragon-hatching" x="465" y="0" width="11" height="11"/>
      <use href="#dragon-full" x="480" y="0" width="11" height="11"/>
      <use href="#dragon-full" x="495" y="0" width="11" height="11"/>
      <use href="#dragon-full" x="510" y="0" width="11" height="11"/>
      <use href="#dragon-hatching" x="525" y="0" width="11" height="11"/>
      <use href="#dragon-full" x="540" y="0" width="11" height="11"/>
      <use href="#dragon-full" x="555" y="0" width="11" height="11"/>
      <use href="#dragon-full" x="570" y="0" width="11" height="11"/>
      <use href="#dragon-full" x="585" y="0" width="11" height="11"/>
      <use href="#dragon-full" x="600" y="0" width="11" height="11"/>
      <use href="#dragon-full" x="615" y="0" width="11" height="11"/>
      <use href="#dragon-full" x="630" y="0" width="11" height="11"/>
      <use href="#dragon-full" x="645" y="0" width="11" height="11"/>
      <use href="#dragon-full" x="660" y="0" width="11" height="11"/>
      <use href="#dragon-full" x="675" y="0" width="11" height="11"/>
      <use href="#dragon-full" x="690" y="0" width="11" height="11"/>
      <use href="#dragon-full" x="705" y="0" width="11" height="11"/>
      <use href="#dragon-full" x="720" y="0" width="11" height="11"/>
      <use href="#dragon-full" x="735" y="0" width="11" height="11"/>
      <use href="#dragon-full" x="750" y="0" width="11" height="11"/>
      <use href="#dragon-full" x="765" y="0" width="11" height="11"/>

      <!-- Additional rows for remaining weeks - simplified to show pattern continues -->
      <!-- (For brevity, showing just a representative sample; in reality would fill all 52 weeks x 7 days) -->
    </g>
  </g>

  <!-- Legend -->
  <g transform="translate(900, 220)">
    <text x="0" y="0" font-family="monospace" font-size="12" fill="#f5deb3">Legend:</text>
    <text x="0" y="20" font-family="monospace" font-size="11" fill="#a0a0a0">Less</text>

    <!-- Empty cell -->
    <rect x="40" y="10" width="11" height="11" rx="2" fill="#2d1b0e" opacity="0.3"/>

    <!-- Egg -->
    <use href="#dragon-egg" x="60" y="10" width="11" height="11"/>

    <!-- Hatching -->
    <use href="#dragon-hatching" x="80" y="10" width="11" height="11"/>

    <!-- Full dragon -->
    <use href="#dragon-full" x="100" y="10" width="11" height="11"/>

    <text x="120" y="20" font-family="monospace" font-size="11" fill="#ffd700">More</text>
  </g>

  <!-- Stats text -->
  <text x="40" y="240" font-family="monospace" font-size="12" fill="#f5deb3">
    Dragons grow stronger with each contribution • Run the workflow to hatch your dragons!
  </text>
</svg>
