<?xml version="1.0" encoding="UTF-8"?>
<svg xmlns="http://www.w3.org/2000/svg" viewBox="0 0 1200 420" width="1200" height="420">
  <defs>
    <linearGradient id="hSkG" x1="0" y1="0" x2="0" y2="1">
      <stop offset="0%"   stop-color="#6AB8E0"/>
      <stop offset="55%"  stop-color="#9CD0EC"/>
      <stop offset="100%" stop-color="#C2E4F8"/>
    </linearGradient>
    <linearGradient id="signG" x1="0" y1="0" x2="0" y2="1">
      <stop offset="0%"   stop-color="#B06838"/>
      <stop offset="100%" stop-color="#7A4820"/>
    </linearGradient>
    <linearGradient id="grassG" x1="0" y1="0" x2="0" y2="1">
      <stop offset="0%"   stop-color="#62CA28"/>
      <stop offset="100%" stop-color="#48A018"/>
    </linearGradient>
    <filter id="signSh">
      <feDropShadow dx="6" dy="8" stdDeviation="7" flood-color="#1a0800" flood-opacity="0.50"/>
    </filter>
    <filter id="textGl">
      <feDropShadow dx="0" dy="3" stdDeviation="4" flood-color="#3a1800" flood-opacity="0.75"/>
    </filter>
    <filter id="charSh">
      <feDropShadow dx="2" dy="3" stdDeviation="3" flood-color="#1a0800" flood-opacity="0.40"/>
    </filter>
  </defs>

  <!-- 하늘 -->
  <rect x="0" y="0" width="1200" height="420" fill="url(#hSkG)"/>

  <!-- 배경 산 (삼각형 + 설원) -->
  
        <polygon points="170,48 -75,298 415,298" fill="#6878A0" opacity="0.70"/>
        <polygon points="170,48 140.6,76 199.4,76" fill="#FFFFFF" opacity="0.30"/>
        <polygon points="170,48 108,148 232,148" fill="#EEF4FF" opacity="0.82"/>
        <polygon points="600,30 300,298 900,298" fill="#6878A0" opacity="0.70"/>
        <polygon points="600,30 564,58 636,58" fill="#FFFFFF" opacity="0.30"/>
        <polygon points="600,30 525,130 675,130" fill="#EEF4FF" opacity="0.82"/>
        <polygon points="1030,52 775,298 1285,298" fill="#6878A0" opacity="0.70"/>
        <polygon points="1030,52 999.4,80 1060.6,80" fill="#FFFFFF" opacity="0.30"/>
        <polygon points="1030,52 965,152 1095,152" fill="#EEF4FF" opacity="0.82"/>

  <!-- 중경 언덕 (짙은 녹색 타원) -->
  <ellipse cx="-20"  cy="325" rx="290" ry="140" fill="#2E5A22"/>
  <ellipse cx="320"  cy="326" rx="295" ry="138" fill="#325E24"/>
  <ellipse cx="660"  cy="322" rx="285" ry="136" fill="#2E5A22"/>
  <ellipse cx="1050" cy="325" rx="280" ry="140" fill="#325E24"/>

  <!-- 밝은 잔디 -->
  <rect x="0" y="298" width="1200" height="122" fill="url(#grassG)"/>
  <rect x="0" y="298" width="1200" height="10" fill="#72DA38" opacity="0.75"/>
  <rect x="0" y="308" width="1200" height="6" fill="#5AC028" opacity="0.5"/>

  <!-- 구름 좌 -->
  <g opacity="0.94">
    <ellipse cx="148" cy="55" rx="58" ry="24" fill="white"/>
    <ellipse cx="182" cy="42" rx="40" ry="18" fill="white"/>
    <ellipse cx="118" cy="60" rx="34" ry="15" fill="white"/>
    <ellipse cx="200" cy="56" rx="25" ry="12" fill="white"/>
  </g>
  <!-- 구름 우 -->
  <g opacity="0.90">
    <ellipse cx="1052" cy="48" rx="62" ry="26" fill="white"/>
    <ellipse cx="1090" cy="36" rx="44" ry="19" fill="white"/>
    <ellipse cx="1020" cy="53" rx="36" ry="16" fill="white"/>
    <ellipse cx="1112" cy="52" rx="28" ry="13" fill="white"/>
  </g>

  <!-- 소나무 좌 (3그루) -->
  
      <polygon points="82,138 34.0192,201.84 129.9808,201.84" fill="#1A3810"/>
      <polygon points="82,161.52 24.1408,233.76 139.8592,233.76" fill="#22481A"/>
      <polygon points="82,191.76 11.439999999999998,272.4 152.56,272.4" fill="#2C5E22"/>
      <rect x="76" y="262.32" width="12" height="50.4" rx="2" fill="#3A2008"/>
  
      <polygon points="140,155 97.7312,211.24 182.2688,211.24" fill="#1A3810"/>
      <polygon points="140,175.72 89.0288,239.36 190.9712,239.36" fill="#22481A"/>
      <polygon points="140,202.36 77.84,273.4 202.16,273.4" fill="#2C5E22"/>
      <rect x="134" y="264.52" width="12" height="44.4" rx="2" fill="#3A2008"/>
  
      <polygon points="194,170 158.0144,217.88 229.9856,217.88" fill="#1A3810"/>
      <polygon points="194,187.64 150.6056,241.82 237.3944,241.82" fill="#22481A"/>
      <polygon points="194,210.32 141.08,270.8 246.92,270.8" fill="#2C5E22"/>
      <rect x="188" y="263.24" width="12" height="37.8" rx="2" fill="#3A2008"/>

  <!-- 소나무 우 (3그루) -->
  
      <polygon points="1006,152 962.0176,210.52 1049.9824,210.52" fill="#1A3810"/>
      <polygon points="1006,173.56 952.9624,239.77999999999997 1059.0375999999999,239.77999999999997" fill="#22481A"/>
      <polygon points="1006,201.28 941.32,275.2 1070.68,275.2" fill="#2C5E22"/>
      <rect x="1000" y="265.96" width="12" height="46.199999999999996" rx="2" fill="#3A2008"/>
  
      <polygon points="1060,140 1013.1616,202.32 1106.8384,202.32" fill="#1A3810"/>
      <polygon points="1060,162.96 1003.5184,233.48 1116.4816,233.48" fill="#22481A"/>
      <polygon points="1060,192.48000000000002 991.12,271.20000000000005 1128.88,271.20000000000005" fill="#2C5E22"/>
      <rect x="1054" y="261.36" width="12" height="49.199999999999996" rx="2" fill="#3A2008"/>
  
      <polygon points="1118,165 1080.872,214.4 1155.128,214.4" fill="#1A3810"/>
      <polygon points="1118,183.2 1073.228,239.1 1162.772,239.1" fill="#22481A"/>
      <polygon points="1118,206.6 1063.4,269 1172.6,269" fill="#2C5E22"/>
      <rect x="1112" y="261.2" width="12" height="39" rx="2" fill="#3A2008"/>

  <!-- 초가집 좌 -->
  
      <path d="M58,298 A152,108 0 0 1 362,298" fill="#C89020"/>
      <path d="M58,298 A152,108 0 0 1 362,298" fill="#D4A030" opacity="0.6"/>
      <line x1="59" y1="288" x2="361" y2="288" stroke="#F8D840" stroke-width="2" opacity="0.14"/><line x1="61" y1="276" x2="359" y2="276" stroke="#F8D840" stroke-width="2" opacity="0.19"/><line x1="66" y1="264" x2="354" y2="264" stroke="#F8D840" stroke-width="2" opacity="0.24"/><line x1="72" y1="252" x2="348" y2="252" stroke="#F8D840" stroke-width="2" opacity="0.28"/><line x1="82" y1="240" x2="338" y2="240" stroke="#F8D840" stroke-width="2" opacity="0.33"/><line x1="97" y1="226" x2="323" y2="226" stroke="#F8D840" stroke-width="2" opacity="0.39"/><line x1="118" y1="212" x2="302" y2="212" stroke="#F8D840" stroke-width="2" opacity="0.44"/>
      <path d="M97.52,254.8 A124.63999999999999,66.96 0 0 1 322.48,254.8"
        fill="none" stroke="#F8E060" stroke-width="2.5" opacity="0.28"/>
      <circle cx="118.8" cy="259.12" r="6" fill="#FFF060" opacity="0.82"/>
      <circle cx="210"         cy="198"     r="6" fill="#FFF060" opacity="0.82"/>
      <circle cx="301.2" cy="259.12" r="6" fill="#FFF060" opacity="0.82"/>
      <rect x="104" y="298" width="213" height="82" fill="#7A5030" rx="2"/>
      <rect x="104" y="298" width="213" height="3" fill="#5A3818" opacity="0.55"/>
      <line x1="104" y1="320" x2="317" y2="320" stroke="#5A3818" stroke-width="1.5" opacity="0.35"/>
      <rect x="194" y="316" width="32" height="72" rx="2" fill="#3C2008"/>
      <rect x="238" y="312" width="36" height="28" rx="2" fill="#EED898" opacity="0.88"/>
      <line x1="256" y1="312" x2="256" y2="340" stroke="#6A4020" stroke-width="2"/>
      <line x1="238" y1="326" x2="274" y2="326" stroke="#6A4020" stroke-width="2"/>
      <rect x="146" y="312" width="36" height="28" rx="2" fill="#EED898" opacity="0.88"/>
      <line x1="164" y1="312" x2="164" y2="340" stroke="#6A4020" stroke-width="2"/>
      <line x1="146" y1="326" x2="182" y2="326" stroke="#6A4020" stroke-width="2"/>
      <rect x="203" y="355" width="14" height="5" rx="1" fill="#8A6040" opacity="0.7"/>

  <!-- 초가집 우 -->
  
      <path d="M838,298 A152,108 0 0 1 1142,298" fill="#C89020"/>
      <path d="M838,298 A152,108 0 0 1 1142,298" fill="#D4A030" opacity="0.6"/>
      <line x1="839" y1="288" x2="1141" y2="288" stroke="#F8D840" stroke-width="2" opacity="0.14"/><line x1="841" y1="276" x2="1139" y2="276" stroke="#F8D840" stroke-width="2" opacity="0.19"/><line x1="846" y1="264" x2="1134" y2="264" stroke="#F8D840" stroke-width="2" opacity="0.24"/><line x1="852" y1="252" x2="1128" y2="252" stroke="#F8D840" stroke-width="2" opacity="0.28"/><line x1="862" y1="240" x2="1118" y2="240" stroke="#F8D840" stroke-width="2" opacity="0.33"/><line x1="877" y1="226" x2="1103" y2="226" stroke="#F8D840" stroke-width="2" opacity="0.39"/><line x1="898" y1="212" x2="1082" y2="212" stroke="#F8D840" stroke-width="2" opacity="0.44"/>
      <path d="M877.52,254.8 A124.63999999999999,66.96 0 0 1 1102.48,254.8"
        fill="none" stroke="#F8E060" stroke-width="2.5" opacity="0.28"/>
      <circle cx="898.8" cy="259.12" r="6" fill="#FFF060" opacity="0.82"/>
      <circle cx="990"         cy="198"     r="6" fill="#FFF060" opacity="0.82"/>
      <circle cx="1081.2" cy="259.12" r="6" fill="#FFF060" opacity="0.82"/>
      <rect x="884" y="298" width="213" height="82" fill="#7A5030" rx="2"/>
      <rect x="884" y="298" width="213" height="3" fill="#5A3818" opacity="0.55"/>
      <line x1="884" y1="320" x2="1097" y2="320" stroke="#5A3818" stroke-width="1.5" opacity="0.35"/>
      <rect x="974" y="316" width="32" height="72" rx="2" fill="#3C2008"/>
      <rect x="1018" y="312" width="36" height="28" rx="2" fill="#EED898" opacity="0.88"/>
      <line x1="1036" y1="312" x2="1036" y2="340" stroke="#6A4020" stroke-width="2"/>
      <line x1="1018" y1="326" x2="1054" y2="326" stroke="#6A4020" stroke-width="2"/>
      <rect x="926" y="312" width="36" height="28" rx="2" fill="#EED898" opacity="0.88"/>
      <line x1="944" y1="312" x2="944" y2="340" stroke="#6A4020" stroke-width="2"/>
      <line x1="926" y1="326" x2="962" y2="326" stroke="#6A4020" stroke-width="2"/>
      <rect x="983" y="355" width="14" height="5" rx="1" fill="#8A6040" opacity="0.7"/>

  <!-- 간판 받침대 -->
  <path d="M422,293 L410,410" stroke="#5A3410" stroke-width="22" stroke-linecap="round"/>
  <path d="M778,293 L790,410" stroke="#5A3410" stroke-width="22" stroke-linecap="round"/>
  <path d="M422,293 L410,410" stroke="#8A5828" stroke-width="6" stroke-linecap="round" opacity="0.40"/>
  <path d="M778,293 L790,410" stroke="#8A5828" stroke-width="6" stroke-linecap="round" opacity="0.40"/>
  <rect x="398" y="367" width="404" height="18" rx="6" fill="#4E3010"/>
  <rect x="398" y="367" width="404" height="6" rx="4" fill="#7A5020" opacity="0.45"/>

  <!-- 간판 보드 -->
  <rect x="370" y="108" width="460" height="185" rx="10"
    fill="url(#signG)" filter="url(#signSh)"/>
  <path d="M390,128 Q600,134 810,128"
      stroke="#5A2808" stroke-width="1.2" fill="none" opacity="0.25"/><path d="M390,146 Q600,140 810,146"
      stroke="#5A2808" stroke-width="1.2" fill="none" opacity="0.25"/><path d="M390,164 Q600,170 810,164"
      stroke="#5A2808" stroke-width="1.2" fill="none" opacity="0.25"/><path d="M390,182 Q600,176 810,182"
      stroke="#5A2808" stroke-width="1.2" fill="none" opacity="0.25"/><path d="M390,200 Q600,206 810,200"
      stroke="#5A2808" stroke-width="1.2" fill="none" opacity="0.25"/><path d="M390,218 Q600,212 810,218"
      stroke="#5A2808" stroke-width="1.2" fill="none" opacity="0.25"/><path d="M390,236 Q600,242 810,236"
      stroke="#5A2808" stroke-width="1.2" fill="none" opacity="0.25"/><path d="M390,254 Q600,248 810,254"
      stroke="#5A2808" stroke-width="1.2" fill="none" opacity="0.25"/><path d="M390,272 Q600,278 810,272"
      stroke="#5A2808" stroke-width="1.2" fill="none" opacity="0.25"/>
  <rect x="370" y="108" width="460" height="185" rx="10"
    fill="none" stroke="#2E1408" stroke-width="3.5" opacity="0.35"/>

  <!-- 색동 테두리 (얇게 12px) -->
  <rect x="370" y="108" width="460" height="2" fill="#E82020"/><rect x="370" y="110" width="460" height="2" fill="#F07020"/><rect x="370" y="112" width="460" height="2" fill="#E8C018"/><rect x="370" y="114" width="460" height="2" fill="#38A028"/><rect x="370" y="116" width="460" height="2" fill="#2070D0"/><rect x="370" y="118" width="460" height="2" fill="#7828C0"/><rect x="370" y="281" width="460" height="2" fill="#E82020"/><rect x="370" y="283" width="460" height="2" fill="#F07020"/><rect x="370" y="285" width="460" height="2" fill="#E8C018"/><rect x="370" y="287" width="460" height="2" fill="#38A028"/><rect x="370" y="289" width="460" height="2" fill="#2070D0"/><rect x="370" y="291" width="460" height="2" fill="#7828C0"/><rect x="370" y="120" width="2" height="161" fill="#E82020"/><rect x="372" y="120" width="2" height="161" fill="#F07020"/><rect x="374" y="120" width="2" height="161" fill="#E8C018"/><rect x="376" y="120" width="2" height="161" fill="#38A028"/><rect x="378" y="120" width="2" height="161" fill="#2070D0"/><rect x="380" y="120" width="2" height="161" fill="#7828C0"/><rect x="818" y="120" width="2" height="161" fill="#E82020"/><rect x="820" y="120" width="2" height="161" fill="#F07020"/><rect x="822" y="120" width="2" height="161" fill="#E8C018"/><rect x="824" y="120" width="2" height="161" fill="#38A028"/><rect x="826" y="120" width="2" height="161" fill="#2070D0"/><rect x="828" y="120" width="2" height="161" fill="#7828C0"/>

  <!-- 갓 쓴 캐릭터 (1.3× 크기) -->
  <g filter="url(#charSh)">
  <!-- 갓 크라운 -->
  <rect x="569" y="7" width="62" height="72" rx="8" fill="#141414"/>
  <ellipse cx="600" cy="7" rx="34" ry="13" fill="#141414"/>
  <rect x="571" y="9" width="12" height="67" rx="3" fill="#2A2A2A" opacity="0.60"/>
  <!-- 갓 챙 -->
  <ellipse cx="600" cy="78" rx="81" ry="20" fill="#141414"/>
  <ellipse cx="600" cy="75" rx="83" ry="16" fill="none" stroke="#282828" stroke-width="2.5"/>
  <!-- 갓끈 -->
  <path d="M535,85 Q553,103 566,116"
    stroke="#C89018" stroke-width="3.5" fill="none"/>
  <path d="M665,85 Q647,103 634,116"
    stroke="#C89018" stroke-width="3.5" fill="none"/>
  <!-- 얼굴 -->
  <circle cx="600" cy="95" r="47" fill="#F6CA9A"/>
  <circle cx="600" cy="95" r="47" fill="none" stroke="#D8A870" stroke-width="1.5" opacity="0.4"/>
  <!-- 눈썹 -->
  <path d="M577,80 Q584,74 592,80"
    stroke="#381808" stroke-width="2.8" fill="none"/>
  <path d="M608,80 Q616,74 623,80"
    stroke="#381808" stroke-width="2.8" fill="none"/>
  <!-- 눈 -->
  <circle cx="584" cy="87" r="7" fill="#241008"/>
  <circle cx="616" cy="87" r="7" fill="#241008"/>
  <circle cx="587" cy="84" r="2.5" fill="white"/>
  <circle cx="619" cy="84" r="2.5" fill="white"/>
  <!-- 코 -->
  <ellipse cx="600" cy="100" rx="6" ry="4.5" fill="#D4986A"/>
  <!-- 입 -->
  <path d="M584,109 Q600,121 616,109"
    stroke="#904830" stroke-width="3" fill="none"/>
  <!-- 볼 홍조 -->
  <ellipse cx="561" cy="98" rx="12" ry="8" fill="#F8A0A0" opacity="0.50"/>
  <ellipse cx="639" cy="98" rx="12" ry="8" fill="#F8A0A0" opacity="0.50"/>
  </g>

  <!-- 간판 텍스트 -->
  <text x="600" y="182"
    text-anchor="middle" font-family="monospace" font-size="16"
    fill="#F8E8B8" opacity="0.88" letter-spacing="1">흥부네 커밋 · Heungbu's Commits</text>
  <text x="600" y="241"
    text-anchor="middle"
    font-family="'Arial Black','Arial Bold',Arial,sans-serif"
    font-size="48" font-weight="bold"
    fill="#FFD838"
    filter="url(#textGl)">1HYUNG'S COMMITS</text>

  <!-- 하단 장식 닷 3개 -->
  <circle cx="572" cy="275" r="9" fill="none" stroke="#C8A030" stroke-width="3"/>
  <circle cx="600"    cy="275" r="9" fill="#4A7A28"/>
  <circle cx="628" cy="275" r="9" fill="#284820"/>
</svg>