<?xml version="1.0" encoding="UTF-8"?>
<svg xmlns="http://www.w3.org/2000/svg" viewBox="0 0 1200 420" width="1200" height="420">
  <defs>
    <linearGradient id="hSkG" x1="0" y1="0" x2="0" y2="1">
      <stop offset="0%"   stop-color="#6AB8E0"/>
      <stop offset="55%"  stop-color="#9CD0EC"/>
      <stop offset="100%" stop-color="#C2E4F8"/>
    </linearGradient>
    <linearGradient id="signG" x1="0" y1="0" x2="0" y2="1">
      <stop offset="0%"   stop-color="#B06838"/>
      <stop offset="100%" stop-color="#7A4820"/>
    </linearGradient>
    <linearGradient id="grassG" x1="0" y1="0" x2="0" y2="1">
      <stop offset="0%"   stop-color="#62CA28"/>
      <stop offset="100%" stop-color="#48A018"/>
    </linearGradient>
    <filter id="signSh">
      <feDropShadow dx="6" dy="8" stdDeviation="7" flood-color="#1a0800" flood-opacity="0.50"/>
    </filter>
    <filter id="textGl">
      <feDropShadow dx="0" dy="3" stdDeviation="4" flood-color="#3a1800" flood-opacity="0.75"/>
    </filter>
    <filter id="charSh">
      <feDropShadow dx="2" dy="3" stdDeviation="3" flood-color="#1a0800" flood-opacity="0.40"/>
    </filter>
  </defs>

  <!-- 하늘 -->
  <rect x="0" y="0" width="1200" height="420" fill="url(#hSkG)"/>

  <!-- 배경 산 (삼각형 + 설원) -->
  
        <polygon points="170,48 -75,298 415,298" fill="#6878A0" opacity="0.70"/>
        <polygon points="170,48 140.6,76 199.4,76" fill="#FFFFFF" opacity="0.30"/>
        <polygon points="170,48 108,148 232,148" fill="#EEF4FF" opacity="0.82"/>
        <polygon points="600,30 300,298 900,298" fill="#6878A0" opacity="0.70"/>
        <polygon points="600,30 564,58 636,58" fill="#FFFFFF" opacity="0.30"/>
        <polygon points="600,30 525,130 675,130" fill="#EEF4FF" opacity="0.82"/>
        <polygon points="1030,52 775,298 1285,298" fill="#6878A0" opacity="0.70"/>
        <polygon points="1030,52 999.4,80 1060.6,80" fill="#FFFFFF" opacity="0.30"/>
        <polygon points="1030,52 965,152 1095,152" fill="#EEF4FF" opacity="0.82"/>

  <!-- 중경 언덕 (짙은 녹색 타원) -->
  <ellipse cx="-20"  cy="325" rx="290" ry="140" fill="#2E5A22"/>
  <ellipse cx="320"  cy="326" rx="295" ry="138" fill="#325E24"/>
  <ellipse cx="660"  cy="322" rx="285" ry="136" fill="#2E5A22"/>
  <ellipse cx="1050" cy="325" rx="280" ry="140" fill="#325E24"/>

  <!-- 밝은 잔디 -->
  <rect x="0" y="298" width="1200" height="122" fill="url(#grassG)"/>
  <rect x="0" y="298" width="1200" height="10" fill="#72DA38" opacity="0.75"/>
  <rect x="0" y="308" width="1200" height="6" fill="#5AC028" opacity="0.5"/>

  <!-- 구름 좌 -->
  <g opacity="0.94">
    <ellipse cx="148" cy="55" rx="58" ry="24" fill="white"/>
    <ellipse cx="182" cy="42" rx="40" ry="18" fill="white"/>
    <ellipse cx="118" cy="60" rx="34" ry="15" fill="white"/>
    <ellipse cx="200" cy="56" rx="25" ry="12" fill="white"/>
  </g>
  <!-- 구름 우 -->
  <g opacity="0.90">
    <ellipse cx="1052" cy="48" rx="62" ry="26" fill="white"/>
    <ellipse cx="1090" cy="36" rx="44" ry="19" fill="white"/>
    <ellipse cx="1020" cy="53" rx="36" ry="16" fill="white"/>
    <ellipse cx="1112" cy="52" rx="28" ry="13" fill="white"/>
  </g>

  <!-- 소나무 좌 (3그루) -->
  
      <polygon points="82,138 34.0192,201.84 129.9808,201.84" fill="#1A3810"/>
      <polygon points="82,161.52 24.1408,233.76 139.8592,233.76" fill="#22481A"/>
      <polygon points="82,191.76 11.439999999999998,272.4 152.56,272.4" fill="#2C5E22"/>
      <rect x="76" y="262.32" width="12" height="50.4" rx="2" fill="#3A2008"/>
  
      <polygon points="140,155 97.7312,211.24 182.2688,211.24" fill="#1A3810"/>
      <polygon points="140,175.72 89.0288,239.36 190.9712,239.36" fill="#22481A"/>
      <polygon points="140,202.36 77.84,273.4 202.16,273.4" fill="#2C5E22"/>
      <rect x="134" y="264.52" width="12" height="44.4" rx="2" fill="#3A2008"/>
  
      <polygon points="194,170 158.0144,217.88 229.9856,217.88" fill="#1A3810"/>
      <polygon points="194,187.64 150.6056,241.82 237.3944,241.82" fill="#22481A"/>
      <polygon points="194,210.32 141.08,270.8 246.92,270.8" fill="#2C5E22"/>
      <rect x="188" y="263.24" width="12" height="37.8" rx="2" fill="#3A2008"/>

  <!-- 소나무 우 (3그루) -->
  
      <polygon points="1006,152 962.0176,210.52 1049.9824,210.52" fill="#1A3810"/>
      <polygon points="1006,173.56 952.9624,239.77999999999997 1059.0375999999999,239.77999999999997" fill="#22481A"/>
      <polygon points="1006,201.28 941.32,275.2 1070.68,275.2" fill="#2C5E22"/>
      <rect x="1000" y="265.96" width="12" height="46.199999999999996" rx="2" fill="#3A2008"/>
  
      <polygon points="1060,140 1013.1616,202.32 1106.8384,202.32" fill="#1A3810"/>
      <polygon points="1060,162.96 1003.5184,233.48 1116.4816,233.48" fill="#22481A"/>
      <polygon points="1060,192.48000000000002 991.12,271.20000000000005 1128.88,271.20000000000005" fill="#2C5E22"/>
      <rect x="1054" y="261.36" width="12" height="49.199999999999996" rx="2" fill="#3A2008"/>
  
      <polygon points="1118,165 1080.872,214.4 1155.128,214.4" fill="#1A3810"/>
      <polygon points="1118,183.2 1073.228,239.1 1162.772,239.1" fill="#22481A"/>
      <polygon points="1118,206.6 1063.4,269 1172.6,269" fill="#2C5E22"/>
      <rect x="1112" y="261.2" width="12" height="39" rx="2" fill="#3A2008"/>

  <!-- 초가집 좌 -->
  
      <path d="M92,298 A118,84 0 0 1 328,298" fill="#C89020"/>
      <path d="M92,298 A118,84 0 0 1 328,298" fill="#D4A030" opacity="0.6"/>
      <line x1="93" y1="288" x2="327" y2="288" stroke="#F8D840" stroke-width="2" opacity="0.14"/><line x1="95" y1="278" x2="325" y2="278" stroke="#F8D840" stroke-width="2" opacity="0.18"/><line x1="100" y1="268" x2="320" y2="268" stroke="#F8D840" stroke-width="2" opacity="0.22"/><line x1="106" y1="258" x2="314" y2="258" stroke="#F8D840" stroke-width="2" opacity="0.26"/><line x1="115" y1="248" x2="305" y2="248" stroke="#F8D840" stroke-width="2" opacity="0.30"/><line x1="130" y1="236" x2="290" y2="236" stroke="#F8D840" stroke-width="2" opacity="0.35"/><line x1="149" y1="226" x2="271" y2="226" stroke="#F8D840" stroke-width="2" opacity="0.39"/>
      <path d="M122.68,264.4 A96.75999999999999,52.08 0 0 1 297.32,264.4"
        fill="none" stroke="#F8E060" stroke-width="2.5" opacity="0.28"/>
      <circle cx="139.2" cy="267.76" r="5" fill="#FFF060" opacity="0.82"/>
      <circle cx="210"         cy="220"     r="5" fill="#FFF060" opacity="0.82"/>
      <circle cx="280.8" cy="267.76" r="5" fill="#FFF060" opacity="0.82"/>
      <rect x="127" y="298" width="165" height="70" fill="#7A5030" rx="2"/>
      <rect x="127" y="298" width="165" height="3" fill="#5A3818" opacity="0.55"/>
      <line x1="127" y1="316" x2="292" y2="316" stroke="#5A3818" stroke-width="1.5" opacity="0.35"/>
      <rect x="196" y="314" width="28" height="62" rx="2" fill="#3C2008"/>
      <rect x="234" y="310" width="32" height="24" rx="2" fill="#EED898" opacity="0.88"/>
      <line x1="250" y1="310" x2="250" y2="334" stroke="#6A4020" stroke-width="2"/>
      <line x1="234" y1="322" x2="266" y2="322" stroke="#6A4020" stroke-width="2"/>
      <rect x="154" y="310" width="32" height="24" rx="2" fill="#EED898" opacity="0.88"/>
      <line x1="170" y1="310" x2="170" y2="334" stroke="#6A4020" stroke-width="2"/>
      <line x1="154" y1="322" x2="186" y2="322" stroke="#6A4020" stroke-width="2"/>
      <rect x="204" y="346" width="12" height="4" rx="1" fill="#8A6040" opacity="0.7"/>

  <!-- 초가집 우 -->
  
      <path d="M872,298 A118,84 0 0 1 1108,298" fill="#C89020"/>
      <path d="M872,298 A118,84 0 0 1 1108,298" fill="#D4A030" opacity="0.6"/>
      <line x1="873" y1="288" x2="1107" y2="288" stroke="#F8D840" stroke-width="2" opacity="0.14"/><line x1="875" y1="278" x2="1105" y2="278" stroke="#F8D840" stroke-width="2" opacity="0.18"/><line x1="880" y1="268" x2="1100" y2="268" stroke="#F8D840" stroke-width="2" opacity="0.22"/><line x1="886" y1="258" x2="1094" y2="258" stroke="#F8D840" stroke-width="2" opacity="0.26"/><line x1="895" y1="248" x2="1085" y2="248" stroke="#F8D840" stroke-width="2" opacity="0.30"/><line x1="910" y1="236" x2="1070" y2="236" stroke="#F8D840" stroke-width="2" opacity="0.35"/><line x1="929" y1="226" x2="1051" y2="226" stroke="#F8D840" stroke-width="2" opacity="0.39"/>
      <path d="M902.6800000000001,264.4 A96.75999999999999,52.08 0 0 1 1077.32,264.4"
        fill="none" stroke="#F8E060" stroke-width="2.5" opacity="0.28"/>
      <circle cx="919.2" cy="267.76" r="5" fill="#FFF060" opacity="0.82"/>
      <circle cx="990"         cy="220"     r="5" fill="#FFF060" opacity="0.82"/>
      <circle cx="1060.8" cy="267.76" r="5" fill="#FFF060" opacity="0.82"/>
      <rect x="907" y="298" width="165" height="70" fill="#7A5030" rx="2"/>
      <rect x="907" y="298" width="165" height="3" fill="#5A3818" opacity="0.55"/>
      <line x1="907" y1="316" x2="1072" y2="316" stroke="#5A3818" stroke-width="1.5" opacity="0.35"/>
      <rect x="976" y="314" width="28" height="62" rx="2" fill="#3C2008"/>
      <rect x="1014" y="310" width="32" height="24" rx="2" fill="#EED898" opacity="0.88"/>
      <line x1="1030" y1="310" x2="1030" y2="334" stroke="#6A4020" stroke-width="2"/>
      <line x1="1014" y1="322" x2="1046" y2="322" stroke="#6A4020" stroke-width="2"/>
      <rect x="934" y="310" width="32" height="24" rx="2" fill="#EED898" opacity="0.88"/>
      <line x1="950" y1="310" x2="950" y2="334" stroke="#6A4020" stroke-width="2"/>
      <line x1="934" y1="322" x2="966" y2="322" stroke="#6A4020" stroke-width="2"/>
      <rect x="984" y="346" width="12" height="4" rx="1" fill="#8A6040" opacity="0.7"/>

  <!-- 간판 받침대 -->
  <path d="M422,290 L410,410" stroke="#5A3410" stroke-width="22" stroke-linecap="round"/>
  <path d="M778,290 L790,410" stroke="#5A3410" stroke-width="22" stroke-linecap="round"/>
  <path d="M422,290 L410,410" stroke="#8A5828" stroke-width="6" stroke-linecap="round" opacity="0.40"/>
  <path d="M778,290 L790,410" stroke="#8A5828" stroke-width="6" stroke-linecap="round" opacity="0.40"/>
  <rect x="398" y="380" width="404" height="18" rx="6" fill="#4E3010"/>
  <rect x="398" y="380" width="404" height="6" rx="4" fill="#7A5020" opacity="0.45"/>

  <!-- 간판 보드 -->
  <rect x="370" y="80" width="460" height="210" rx="10"
    fill="url(#signG)" filter="url(#signSh)"/>
  <path d="M402,112 Q600,118 798,112"
      stroke="#5A2808" stroke-width="1.2" fill="none" opacity="0.25"/><path d="M402,130 Q600,124 798,130"
      stroke="#5A2808" stroke-width="1.2" fill="none" opacity="0.25"/><path d="M402,148 Q600,154 798,148"
      stroke="#5A2808" stroke-width="1.2" fill="none" opacity="0.25"/><path d="M402,166 Q600,160 798,166"
      stroke="#5A2808" stroke-width="1.2" fill="none" opacity="0.25"/><path d="M402,184 Q600,190 798,184"
      stroke="#5A2808" stroke-width="1.2" fill="none" opacity="0.25"/><path d="M402,202 Q600,196 798,202"
      stroke="#5A2808" stroke-width="1.2" fill="none" opacity="0.25"/><path d="M402,220 Q600,226 798,220"
      stroke="#5A2808" stroke-width="1.2" fill="none" opacity="0.25"/><path d="M402,238 Q600,232 798,238"
      stroke="#5A2808" stroke-width="1.2" fill="none" opacity="0.25"/><path d="M402,256 Q600,262 798,256"
      stroke="#5A2808" stroke-width="1.2" fill="none" opacity="0.25"/><path d="M402,274 Q600,268 798,274"
      stroke="#5A2808" stroke-width="1.2" fill="none" opacity="0.25"/>
  <rect x="370" y="80" width="460" height="210" rx="10"
    fill="none" stroke="#2E1408" stroke-width="3.5" opacity="0.35"/>

  <!-- 무지개 색동 테두리 -->
  <rect x="370" y="80" width="460" height="4" fill="#E82020"/><rect x="370" y="84" width="460" height="4" fill="#F07020"/><rect x="370" y="88" width="460" height="4" fill="#E8C018"/><rect x="370" y="92" width="460" height="4" fill="#38A028"/><rect x="370" y="96" width="460" height="4" fill="#2070D0"/><rect x="370" y="100" width="460" height="4" fill="#7828C0"/><rect x="370" y="266" width="460" height="4" fill="#E82020"/><rect x="370" y="270" width="460" height="4" fill="#F07020"/><rect x="370" y="274" width="460" height="4" fill="#E8C018"/><rect x="370" y="278" width="460" height="4" fill="#38A028"/><rect x="370" y="282" width="460" height="4" fill="#2070D0"/><rect x="370" y="286" width="460" height="4" fill="#7828C0"/><rect x="370" y="104" width="4" height="162" fill="#E82020"/><rect x="374" y="104" width="4" height="162" fill="#F07020"/><rect x="378" y="104" width="4" height="162" fill="#E8C018"/><rect x="382" y="104" width="4" height="162" fill="#38A028"/><rect x="386" y="104" width="4" height="162" fill="#2070D0"/><rect x="390" y="104" width="4" height="162" fill="#7828C0"/><rect x="806" y="104" width="4" height="162" fill="#E82020"/><rect x="810" y="104" width="4" height="162" fill="#F07020"/><rect x="814" y="104" width="4" height="162" fill="#E8C018"/><rect x="818" y="104" width="4" height="162" fill="#38A028"/><rect x="822" y="104" width="4" height="162" fill="#2070D0"/><rect x="826" y="104" width="4" height="162" fill="#7828C0"/>

  <!-- 갓 쓴 캐릭터 (간판 위에서 삐죽 나옴) -->
  <g filter="url(#charSh)">
  <!-- 갓 크라운 (검은 원통형 모자) -->
  <rect x="576" y="2" width="48" height="55" rx="6" fill="#141414"/>
  <ellipse cx="600" cy="2" rx="26" ry="10" fill="#141414"/>
  <rect x="578" y="4" width="9" height="51" rx="3" fill="#2A2A2A" opacity="0.60"/>
  <!-- 갓 챙 (넓은 평면 브림) -->
  <ellipse cx="600" cy="57" rx="62" ry="15" fill="#141414"/>
  <ellipse cx="600" cy="55" rx="64" ry="12" fill="none" stroke="#282828" stroke-width="2.5"/>
  <!-- 갓끈 -->
  <path d="M550,62 Q564,76 574,86"
    stroke="#C89018" stroke-width="3" fill="none"/>
  <path d="M650,62 Q636,76 626,86"
    stroke="#C89018" stroke-width="3" fill="none"/>
  <!-- 얼굴 -->
  <circle cx="600" cy="70" r="36" fill="#F6CA9A"/>
  <circle cx="600" cy="70" r="36" fill="none" stroke="#D8A870" stroke-width="1.5" opacity="0.4"/>
  <!-- 눈썹 -->
  <path d="M582,58 Q588,54 594,58"
    stroke="#381808" stroke-width="2.2" fill="none"/>
  <path d="M606,58 Q612,54 618,58"
    stroke="#381808" stroke-width="2.2" fill="none"/>
  <!-- 눈 -->
  <circle cx="588" cy="64" r="5" fill="#241008"/>
  <circle cx="612" cy="64" r="5" fill="#241008"/>
  <circle cx="590" cy="62" r="2" fill="white"/>
  <circle cx="614" cy="62" r="2" fill="white"/>
  <!-- 코 -->
  <ellipse cx="600" cy="74" rx="4.5" ry="3.5" fill="#D4986A"/>
  <!-- 입 (활짝 웃음) -->
  <path d="M588,81 Q600,90 612,81"
    stroke="#904830" stroke-width="2.5" fill="none"/>
  <!-- 볼 홍조 -->
  <ellipse cx="570" cy="72" rx="9" ry="6" fill="#F8A0A0" opacity="0.50"/>
  <ellipse cx="630" cy="72" rx="9" ry="6" fill="#F8A0A0" opacity="0.50"/>
  </g>

  <!-- 간판 텍스트 -->
  <text x="600" y="158"
    text-anchor="middle" font-family="monospace" font-size="16"
    fill="#F8E8B8" opacity="0.88" letter-spacing="1">흥부네 커밋 · Heungbu's Commits</text>
  <text x="600" y="223"
    text-anchor="middle"
    font-family="'Arial Black','Arial Bold',Arial,sans-serif"
    font-size="50" font-weight="bold"
    fill="#FFD838"
    filter="url(#textGl)">1HYUNG'S COMMITS</text>

  <!-- 하단 장식 닷 3개 -->
  <circle cx="572" cy="263" r="9" fill="none" stroke="#C8A030" stroke-width="3"/>
  <circle cx="600"    cy="263" r="9" fill="#4A7A28"/>
  <circle cx="628" cy="263" r="9" fill="#284820"/>
</svg>