<?xml version="1.0" encoding="UTF-8"?>
<svg xmlns="http://www.w3.org/2000/svg" viewBox="0 0 1200 300" width="1200" height="300">
  <defs>
    <linearGradient id="hSkyGrad" x1="0" y1="0" x2="0" y2="1">
      <stop offset="0%"   stop-color="#4a98c8"/>
      <stop offset="55%"  stop-color="#70b8e0"/>
      <stop offset="100%" stop-color="#a8d8f0"/>
    </linearGradient>
    <linearGradient id="hTitleGrad" x1="0%" y1="0%" x2="100%" y2="0%">
      <stop offset="0%"   stop-color="#f0d880"/>
      <stop offset="50%"  stop-color="#fffde0"/>
      <stop offset="100%" stop-color="#f0d880"/>
    </linearGradient>
    <filter id="hTextShadow">
      <feDropShadow dx="2" dy="2" stdDeviation="3" flood-color="#6a4420" flood-opacity="0.7"/>
    </filter>
    <filter id="hGourdGlow">
      <feGaussianBlur stdDeviation="2" result="blur"/>
      <feMerge><feMergeNode in="blur"/><feMergeNode in="SourceGraphic"/></feMerge>
    </filter>
  </defs>

  <!-- 하늘 -->
  <rect x="0" y="0" width="1200" height="300" fill="url(#hSkyGrad)"/>

  <!-- 구름 -->
  <g opacity="0.88">
    <ellipse cx="160"  cy="60"  rx="55" ry="22" fill="white"/>
    <ellipse cx="195"  cy="50"  rx="40" ry="17" fill="white"/>
    <ellipse cx="128"  cy="63"  rx="32" ry="14" fill="white"/>
  </g>
  <g opacity="0.80">
    <ellipse cx="950"  cy="48"  rx="58" ry="22" fill="white"/>
    <ellipse cx="985"  cy="38"  rx="42" ry="17" fill="white"/>
    <ellipse cx="918"  cy="52"  rx="34" ry="14" fill="white"/>
  </g>
  <g opacity="0.72">
    <ellipse cx="520"  cy="35"  rx="42" ry="16" fill="white"/>
    <ellipse cx="545"  cy="26"  rx="30" ry="12" fill="white"/>
  </g>

  <!-- 원경 산 -->
  <polygon
    points="0,190 80,115 180,155 280,100 380,145 480,92 580,132 680,88 780,125 880,82 980,118 1080,78 1200,108 1200,210 0,210"
    fill="#3a7020" opacity="0.5"/>

  <!-- 중경 언덕 -->
  <ellipse cx="-30"  cy="240" rx="230" ry="88" fill="#4a8030"/>
  <ellipse cx="330"  cy="255" rx="280" ry="95" fill="#4a8030"/>
  <ellipse cx="720"  cy="248" rx="250" ry="90" fill="#4a8030"/>
  <ellipse cx="1100" cy="242" rx="220" ry="85" fill="#4a8030"/>

  <!-- 지평선 -->
  <rect x="0" y="248" width="1200" height="52" fill="#5a9e3a"/>

  <!-- 소나무 (좌) -->
  <g fill="#3d7a22" opacity="0.82">
    <polygon points="55,252 80,175 105,252"/>
    <polygon points="60,235 80,188 100,235"/>
    <rect x="75" y="247" width="10" height="28" fill="#5c3214"/>
  </g>
  <g fill="#3d7a22" opacity="0.70">
    <polygon points="108,255 130,188 152,255"/>
    <polygon points="112,240 130,200 148,240"/>
    <rect x="126" y="250" width="8" height="24" fill="#5c3214"/>
  </g>

  <!-- 소나무 (우) -->
  <g fill="#3d7a22" opacity="0.78">
    <polygon points="1060,252 1082,177 1104,252"/>
    <polygon points="1064,237 1082,190 1100,237"/>
    <rect x="1078" y="247" width="10" height="28" fill="#5c3214"/>
  </g>
  <g fill="#3d7a22" opacity="0.85">
    <polygon points="1108,256 1132,180 1156,256"/>
    <polygon points="1112,240 1132,194 1152,240"/>
    <rect x="1128" y="250" width="10" height="28" fill="#5c3214"/>
  </g>

  <!-- 초가집 실루엣 (좌) -->
  <g opacity="0.78">
    <!-- 지붕 -->
    <polygon points="155,200 240,155 325,200" fill="#c4983e"/>
    <polygon points="165,200 240,160 315,200" fill="#d4a853"/>
    <!-- 지붕 하이라이트 -->
    <line x1="200" y1="183" x2="240" y2="162" stroke="#f0d880" stroke-width="1.5" opacity="0.5"/>
    <!-- 집 본체 -->
    <rect x="175" y="198" width="130" height="52" fill="#6b4828"/>
    <!-- 기둥 -->
    <rect x="182" y="200" width="8" height="50" fill="#5a3820"/>
    <rect x="290" y="200" width="8" height="50" fill="#5a3820"/>
    <!-- 창문 -->
    <rect x="215" y="212" width="28" height="22" rx="1" fill="#e8d4a0" opacity="0.7"/>
    <rect x="237" y="212" width="2" height="22" fill="#6b4828" opacity="0.6"/>
    <rect x="215" y="223" width="28" height="2" fill="#6b4828" opacity="0.6"/>
    <rect x="258" y="212" width="24" height="22" rx="1" fill="#e8d4a0" opacity="0.7"/>
    <rect x="270" y="212" width="2" height="22" fill="#6b4828" opacity="0.6"/>
    <rect x="258" y="223" width="24" height="2" fill="#6b4828" opacity="0.6"/>
    <!-- 박 덩굴 on 지붕 -->
    <path d="M180,198 Q210,180 240,185 Q270,180 310,192" stroke="#4a8a30" stroke-width="2.5" fill="none" opacity="0.9"/>
    <ellipse cx="205" cy="181" rx="9" ry="6" fill="#c8b860" filter="url(#hGourdGlow)"/>
    <ellipse cx="205" cy="181" rx="5" ry="3" fill="#f8f0b0"/>
    <ellipse cx="258" cy="178" rx="11" ry="7.5" fill="#c8b860" filter="url(#hGourdGlow)"/>
    <ellipse cx="258" cy="178" rx="6" ry="4" fill="#f8f0b0"/>
    <ellipse cx="295" cy="183" rx="8" ry="5.5" fill="#c8b860" filter="url(#hGourdGlow)"/>
  </g>

  <!-- 초가집 실루엣 (우) -->
  <g opacity="0.78">
    <polygon points="875,200 960,155 1045,200" fill="#c4983e"/>
    <polygon points="885,200 960,160 1035,200" fill="#d4a853"/>
    <line x1="918" y1="183" x2="960" y2="162" stroke="#f0d880" stroke-width="1.5" opacity="0.5"/>
    <rect x="893" y="198" width="130" height="52" fill="#6b4828"/>
    <rect x="900" y="200" width="8" height="50" fill="#5a3820"/>
    <rect x="1008" y="200" width="8" height="50" fill="#5a3820"/>
    <rect x="932" y="212" width="28" height="22" rx="1" fill="#e8d4a0" opacity="0.7"/>
    <rect x="954" y="212" width="2" height="22" fill="#6b4828" opacity="0.6"/>
    <rect x="932" y="223" width="28" height="2" fill="#6b4828" opacity="0.6"/>
    <rect x="974" y="212" width="24" height="22" rx="1" fill="#e8d4a0" opacity="0.7"/>
    <rect x="986" y="212" width="2" height="22" fill="#6b4828" opacity="0.6"/>
    <rect x="974" y="223" width="24" height="2" fill="#6b4828" opacity="0.6"/>
    <path d="M895,198 Q930,180 960,184 Q990,180 1030,192" stroke="#4a8a30" stroke-width="2.5" fill="none" opacity="0.9"/>
    <ellipse cx="922"  cy="181" rx="9"  ry="6"   fill="#c8b860" filter="url(#hGourdGlow)"/>
    <ellipse cx="922"  cy="181" rx="5"  ry="3"   fill="#f8f0b0"/>
    <ellipse cx="972"  cy="177" rx="12" ry="8"   fill="#c8b860" filter="url(#hGourdGlow)"/>
    <ellipse cx="972"  cy="177" rx="7"  ry="4.5" fill="#f8f0b0"/>
    <ellipse cx="1015" cy="184" rx="8"  ry="5.5" fill="#c8b860" filter="url(#hGourdGlow)"/>
  </g>

  <!-- 중앙 타이틀 패널 -->
  <rect x="380" y="115" width="440" height="90" rx="12" fill="#6a4420" opacity="0.80"/>
  <rect x="385" y="120" width="430" height="80" rx="10" fill="none" stroke="#f0d880" stroke-width="1.5" opacity="0.55"/>

  <!-- 타이틀 텍스트 -->
  <text x="600" y="150"
        text-anchor="middle"
        font-family="monospace"
        font-size="13"
        fill="#f8e8c0"
        opacity="0.85">흥부네 커밋 · Heungbu's Commits</text>
  <text x="600" y="183"
        text-anchor="middle"
        font-family="'Arial Black', Arial, sans-serif"
        font-size="34"
        font-weight="bold"
        fill="url(#hTitleGrad)"
        filter="url(#hTextShadow)">1HYUNG'S COMMITS</text>

  <!-- 떠다니는 박 파티클 -->
  <g filter="url(#hGourdGlow)">
    <ellipse cx="480" cy="268" rx="7" ry="5" fill="#e8d890" opacity="0.85">
      <animate attributeName="cy" values="268;252;268" dur="4.2s" repeatCount="indefinite"/>
      <animate attributeName="opacity" values="0.85;0.3;0.85" dur="4.2s" repeatCount="indefinite"/>
    </ellipse>
    <ellipse cx="720" cy="272" rx="8" ry="5.5" fill="#e8d890" opacity="0.80">
      <animate attributeName="cy" values="272;254;272" dur="3.6s" repeatCount="indefinite"/>
      <animate attributeName="opacity" values="0.80;0.2;0.80" dur="3.6s" repeatCount="indefinite"/>
    </ellipse>
  </g>

  <!-- 하단 지면 -->
  <rect x="0" y="292" width="1200" height="8" fill="#5a9e3a" opacity="0.7"/>
</svg>