<?xml version="1.0" encoding="UTF-8"?>
<svg xmlns="http://www.w3.org/2000/svg" viewBox="0 0 850 112" width="850" height="112">
  <rect width="850" height="112" fill="#2a1a08" rx="4"/>
  <rect width="850" height="112" fill="none" stroke="#6a4420" stroke-width="1.5" rx="4"/>
  
  <rect x="19" y="5" width="156" height="102"
        fill="#331e0a" stroke="#7a5030" stroke-width="1" rx="3"/>
  <text x="97" y="17" text-anchor="middle"
        font-family="monospace" font-size="9" fill="#e8d0a0" opacity="0.65">Lv.0</text>
  <text x="97" y="58" text-anchor="middle" font-family="monospace" font-size="20" fill="#6a4420" opacity="0.5">—</text>
  <text x="97" y="98" text-anchor="middle"
        font-family="monospace" font-size="8" fill="#b09060">빈 초가</text>
  <rect x="183" y="5" width="156" height="102"
        fill="#331e0a" stroke="#7a5030" stroke-width="1" rx="3"/>
  <text x="261" y="17" text-anchor="middle"
        font-family="monospace" font-size="9" fill="#e8d0a0" opacity="0.65">Lv.1</text>
  <g transform="translate(243.5,35.5) scale(2.500)"><ellipse cx="7" cy="12.9" rx="3.3" ry="0.85" fill="#33240f" opacity="0.20"/>
<line x1="7" y1="12.6" x2="7" y2="8" stroke="#1F4406" stroke-width="2.3" stroke-linecap="round"/>
<line x1="7" y1="12.2" x2="7" y2="8.3" stroke="#5AA828" stroke-width="1.0" stroke-linecap="round"/>
<path d="M7 10 Q 3 9 2.5 6 Q 5 7.5 7 10 Z" fill="#5AA828" stroke="#2A5C08" stroke-width="0.45"/>
<path d="M7 10 Q 11 9 11.5 6 Q 9 7.5 7 10 Z" fill="#3D7A26" stroke="#2A5C08" stroke-width="0.45"/>
<path d="M6.4 9.3 Q 4.3 8.4 3.4 6.7" stroke="#9BD85A" stroke-width="0.5" fill="none" opacity="0.75"/>
<circle cx="7" cy="6.7" r="0.95" fill="#D94A4A"/>
<circle cx="7" cy="6.7" r="0.4" fill="#F0C040"/></g>
  <text x="261" y="98" text-anchor="middle"
        font-family="monospace" font-size="8" fill="#b09060">새싹</text>
  <rect x="347" y="5" width="156" height="102"
        fill="#331e0a" stroke="#7a5030" stroke-width="1" rx="3"/>
  <text x="425" y="17" text-anchor="middle"
        font-family="monospace" font-size="9" fill="#e8d0a0" opacity="0.65">Lv.2</text>
  <g transform="translate(407.5,35.5) scale(2.500)"><ellipse cx="7" cy="13" rx="3.8" ry="0.85" fill="#33240f" opacity="0.18"/>
<path d="M1.5 13 Q 4 10 6 8 Q 8 6 12.5 2.5" stroke="#1F4406" stroke-width="2.3" fill="none" stroke-linecap="round"/>
<path d="M1.5 13 Q 4 10 6 8 Q 8 6 12.5 2.5" stroke="#3D7A14" stroke-width="1.0" fill="none" stroke-linecap="round"/>
<path d="M3.5 11 Q 1.5 10 1 8 Q 3 9.2 4.5 11 Z" fill="#5AA828" stroke="#2A5C08" stroke-width="0.4"/>
<path d="M7 8 Q 5 6.5 5 5 Q 7 6.5 7.8 7.7 Z" fill="#3D7A26" stroke="#2A5C08" stroke-width="0.4"/>
<path d="M10.5 4.8 Q 9 3.2 9 1.7 Q 10.8 3 11.3 4.5 Z" fill="#5AA828" stroke="#2A5C08" stroke-width="0.4"/>
<path d="M10.8 3.5 Q 12.5 2 13.5 0.8" stroke="#D94A4A" stroke-width="0.9" fill="none" stroke-linecap="round"/>
<circle cx="4" cy="11" r="0.5" fill="#F0C040"/></g>
  <text x="425" y="98" text-anchor="middle"
        font-family="monospace" font-size="8" fill="#b09060">덩굴</text>
  <rect x="511" y="5" width="156" height="102"
        fill="#331e0a" stroke="#7a5030" stroke-width="1" rx="3"/>
  <text x="589" y="17" text-anchor="middle"
        font-family="monospace" font-size="9" fill="#e8d0a0" opacity="0.65">Lv.3</text>
  <g transform="translate(571.5,35.5) scale(2.500)"><ellipse cx="10.5" cy="11.7" rx="2.8" ry="0.8" fill="#33240f" opacity="0.20"/>
<path d="M1 13 Q 3 10 5.5 8.5 Q 8 7 12.5 5" stroke="#1F4406" stroke-width="2.0" fill="none" stroke-linecap="round"/>
<path d="M1 13 Q 3 10 5.5 8.5 Q 8 7 12.5 5" stroke="#3D7A14" stroke-width="0.85" fill="none" stroke-linecap="round"/>
<path d="M3.5 11 Q 1.5 10 1 8.5 Q 3 9.5 4.2 11 Z" fill="#5AA828" stroke="#2A5C08" stroke-width="0.4"/>
<path d="M7 8 Q 5.3 6.6 5.3 5.1 Q 7 6.2 7.8 7.5 Z" fill="#3D7A26" stroke="#2A5C08" stroke-width="0.4"/>
<circle cx="10.5" cy="9.5" r="2.4" fill="#DB8A36" stroke="#8A4A12" stroke-width="0.5"/>
<path d="M8.6 10.6 Q 10.5 11.7 12.4 10.6" stroke="#B06A1E" stroke-width="0.8" fill="none" opacity="0.7"/>
<ellipse cx="9.6" cy="8.7" rx="1.0" ry="0.65" fill="#F6D27A" opacity="0.8"/>
<circle cx="9.4" cy="8.5" r="0.3" fill="#FFF2B8" opacity="0.9"/>
<line x1="10.5" y1="7.2" x2="10.5" y2="6" stroke="#2A5C08" stroke-width="1.2" stroke-linecap="round"/></g>
  <text x="589" y="98" text-anchor="middle"
        font-family="monospace" font-size="8" fill="#b09060">작은 박</text>
  <rect x="675" y="5" width="156" height="102"
        fill="#331e0a" stroke="#d4a020" stroke-width="1.5" rx="3"/>
  <text x="753" y="17" text-anchor="middle"
        font-family="monospace" font-size="9" fill="#e8d0a0" opacity="0.65">Lv.4</text>
  <g transform="translate(735.5,35.5) scale(2.500)"><ellipse cx="7.5" cy="13.4" rx="4.6" ry="1.05" fill="#33240f" opacity="0.22"/>
<circle cx="7.5" cy="8.5" r="5.5" fill="#DB8A36" stroke="#8A4A12" stroke-width="0.6"/>
<path d="M3 10.6 Q 7.5 13.3 12 10.6" stroke="#B06A1E" stroke-width="1.3" fill="none" opacity="0.45"/>
<path d="M2.7 8.5 Q 7.5 11.6 12.3 8.5" stroke="#B06A1E" stroke-width="0.5" fill="none" opacity="0.6"/>
<path d="M2.7 8.5 Q 7.5 5.4 12.3 8.5" stroke="#B06A1E" stroke-width="0.4" fill="none" opacity="0.5"/>
<ellipse cx="5.4" cy="6.6" rx="2.4" ry="1.5" fill="#F6D27A" opacity="0.6"/>
<ellipse cx="5.8" cy="6.0" rx="1.1" ry="0.6" fill="#FFF2B8" opacity="0.8"/>
<line x1="7.5" y1="3.1" x2="7.5" y2="1.5" stroke="#2A5C08" stroke-width="1.9" stroke-linecap="round"/>
<path d="M7.8 2 Q 10.5 1.2 12.5 0.4" stroke="#2A5C08" stroke-width="1.2" fill="none" stroke-linecap="round"/>
<path d="M4.5 3.6 Q 3 2.6 2.6 1.2 Q 4 2.2 5 3.4 Z" fill="#4A8A30" stroke="#2A5C08" stroke-width="0.35"/>
<circle cx="10.5" cy="10" r="0.6" fill="#D94A4A" opacity="0.85"/>
<circle cx="10.8" cy="9.7" r="0.25" fill="#F0C040"/>
<circle cx="7.5" cy="8.5" r="5.5" fill="none" stroke="#F5C820" stroke-width="0.7" opacity="0.4"/></g>
  <text x="753" y="98" text-anchor="middle"
        font-family="monospace" font-size="8" fill="#b09060">황금 박</text>
</svg>