<?xml version="1.0" encoding="UTF-8"?>
<svg xmlns="http://www.w3.org/2000/svg" viewBox="0 0 850 112" width="850" height="112">
  <rect width="850" height="112" fill="#2a1a08" rx="4"/>
  <rect width="850" height="112" fill="none" stroke="#6a4420" stroke-width="1.5" rx="4"/>
  
  <rect x="19" y="5" width="156" height="102"
        fill="#331e0a" stroke="#7a5030" stroke-width="1" rx="3"/>
  <text x="97" y="17" text-anchor="middle"
        font-family="monospace" font-size="9" fill="#e8d0a0" opacity="0.65">Lv.0</text>
  <text x="97" y="58" text-anchor="middle" font-family="monospace" font-size="20" fill="#6a4420" opacity="0.5">—</text>
  <text x="97" y="98" text-anchor="middle"
        font-family="monospace" font-size="8" fill="#b09060">빈 초가</text>
  <rect x="183" y="5" width="156" height="102"
        fill="#331e0a" stroke="#7a5030" stroke-width="1" rx="3"/>
  <text x="261" y="17" text-anchor="middle"
        font-family="monospace" font-size="9" fill="#e8d0a0" opacity="0.65">Lv.1</text>
  <g transform="translate(243.5,35.5) scale(2.500)"><line x1="7" y1="14" x2="7" y2="8.5" stroke="#2A5C08" stroke-width="1.7" stroke-linecap="round"/>
<path d="M7,11 C5.5,10.5 3.5,9 3,7 C5,8 6.5,9.5 7,11Z" fill="#70C828"/>
<path d="M7,11 C8.5,10.5 10.5,9 11,7 C9,8 7.5,9.5 7,11Z" fill="#5AB020"/>
<ellipse cx="7" cy="7.2" rx="1.5" ry="2.2" fill="#3A9012"/></g>
  <text x="261" y="98" text-anchor="middle"
        font-family="monospace" font-size="8" fill="#b09060">새싹</text>
  <rect x="347" y="5" width="156" height="102"
        fill="#331e0a" stroke="#7a5030" stroke-width="1" rx="3"/>
  <text x="425" y="17" text-anchor="middle"
        font-family="monospace" font-size="9" fill="#e8d0a0" opacity="0.65">Lv.2</text>
  <g transform="translate(407.5,35.5) scale(2.500)"><path d="M2,14 C3,11.5 5,10.5 6,8.5 C7,6.5 8.5,4.5 11.5,3" stroke="#2A5C08" stroke-width="1.8" fill="none" stroke-linecap="round"/>
<path d="M4.5,12 C4.5,12 2,11 1.5,9.5 C3,10.2 5,11 4.5,12Z" fill="#72CB35"/>
<path d="M7,9.5 C7,9.5 5.5,7.5 5.5,6 C7,7 8.5,8.5 7,9.5Z" fill="#5BB825"/>
<path d="M10.5,5.2 C10.5,5.2 9,3.5 9,2 C10.5,3 12,4.2 10.5,5.2Z" fill="#72CB35"/>
<path d="M10.8,3.8 Q12.5,2.5 13.5,1.5" stroke="#2A5C08" stroke-width="1" fill="none" stroke-linecap="round"/></g>
  <text x="425" y="98" text-anchor="middle"
        font-family="monospace" font-size="8" fill="#b09060">덩굴</text>
  <rect x="511" y="5" width="156" height="102"
        fill="#331e0a" stroke="#7a5030" stroke-width="1" rx="3"/>
  <text x="589" y="17" text-anchor="middle"
        font-family="monospace" font-size="9" fill="#e8d0a0" opacity="0.65">Lv.3</text>
  <g transform="translate(571.5,35.5) scale(2.500)"><path d="M1,14 C2,11.5 4,10 5,8 C5.5,6.5 6.5,5.5 7.5,5" stroke="#2A5C08" stroke-width="1.5" fill="none" stroke-linecap="round"/>
<path d="M3.5,12 C3.5,12 1.5,11 1,9.5 C2.5,10.5 4,11.5 3.5,12Z" fill="#72CB35"/>
<path d="M6,8.5 C6,8.5 4.5,7 4.5,5.5 C6,6.5 7.5,7.8 6,8.5Z" fill="#5BB825"/>
<ellipse cx="11" cy="11.5" rx="2.7" ry="2.2" fill="#C48C18"/>
<ellipse cx="11" cy="7.2" rx="1.8" ry="1.5" fill="#C48C18"/>
<rect x="10.1" y="8.5" width="1.8" height="1.5" fill="#B87E12"/>
<line x1="11" y1="5.7" x2="11" y2="4.5" stroke="#2A5C08" stroke-width="1.3" stroke-linecap="round"/>
<ellipse cx="9.8" cy="10.5" rx="1" ry="0.75" fill="#E8C840" opacity="0.65"/></g>
  <text x="589" y="98" text-anchor="middle"
        font-family="monospace" font-size="8" fill="#b09060">작은 박</text>
  <rect x="675" y="5" width="156" height="102"
        fill="#331e0a" stroke="#d4a020" stroke-width="1.5" rx="3"/>
  <text x="753" y="17" text-anchor="middle"
        font-family="monospace" font-size="9" fill="#e8d0a0" opacity="0.65">Lv.4</text>
  <g transform="translate(735.5,35.5) scale(2.500)"><ellipse cx="7.5" cy="10.5" rx="6" ry="3.8" fill="#D09818"/>
<ellipse cx="7.5" cy="5" rx="3.5" ry="2.8" fill="#C89018"/>
<rect x="6.2" y="7.5" width="2.6" height="1.8" fill="#B87810"/>
<line x1="7.5" y1="2.2" x2="7.5" y2="0.5" stroke="#2A5C08" stroke-width="2" stroke-linecap="round"/>
<path d="M8,2 Q11,1.5 12.5,0.5" stroke="#2A5C08" stroke-width="1.2" fill="none" stroke-linecap="round"/>
<ellipse cx="5.5" cy="9" rx="2.5" ry="1.6" fill="#F0D050" opacity="0.55"/>
<ellipse cx="6.2" cy="4.2" rx="1.5" ry="1" fill="#F0D050" opacity="0.48"/>
<ellipse cx="7.5" cy="10.5" rx="6" ry="3.8" fill="none" stroke="#F5C820" stroke-width="1" opacity="0.65"/></g>
  <text x="753" y="98" text-anchor="middle"
        font-family="monospace" font-size="8" fill="#b09060">황금 박</text>
</svg>